# xmcd
#
# Track frame offsets:
#       150
#       12688
#       25450
#       38135
#       55160
#       69935
#       81530
#       96388
#       111365
#       127290
#       142373
#       153665
#       170583
#       182183
#       194980
#       208723
#
# Disc length: 2950 seconds
#
# Revision: 0
# Processed by: cddbd v1.5.2PL0 Copyright (c) Steve Scherf et al.
# Submitted via: WhereIsIt 2010.1026
#
DISCID=080b8410
DTITLE=Denis King - I Rember You
DYEAR=1900
DGENRE=
TTITLE0=Remember You
TTITLE1=The Best Of Everything
TTITLE2=Vårat Gäng
TTITLE3=Loves Back In Style
TTITLE4=Pennsylvania 6-5000
TTITLE5=Who Would Have Dreamed
TTITLE6=Still Waters
TTITLE7=It Had To Be You
TTITLE8=On The Sunny Side Of Thestreet
TTITLE9=Räkna De Lyckliga Stunderna Blott
TTITLE10=Who Are You I Love You
TTITLE11=You'll Never Know
TTITLE12=How Do You Do Mr. Swing
TTITLE13=Love Left Over
TTITLE14=Stockholm Serenade
TTITLE15=ll Get By
EXTD=
EXTT0=
EXTT1=
EXTT2=
EXTT3=
EXTT4=
EXTT5=
EXTT6=
EXTT7=
EXTT8=
EXTT9=
EXTT10=
EXTT11=
EXTT12=
EXTT13=
EXTT14=
EXTT15=
PLAYORDER=
